<svg width="664" height="751" viewBox="0 0 664 751" fill="none" xmlns="http://www.w3.org/2000/svg">
<path d="M456.5 377.5H664V751H0V377.5H207.5V564.25H456.5V377.5Z" fill="white"/>
<path d="M454.411 44.6714H420.966V11.1679C420.966 8.20596 419.791 5.36537 417.701 3.27099C415.61 1.17661 412.774 0 409.818 0H209.148C206.192 0 203.356 1.17661 201.265 3.27099C199.175 5.36537 198 8.20596 198 11.1679V256.861C198 259.823 199.175 262.663 201.265 264.758C203.356 266.852 206.192 268.029 209.148 268.029H242.593V301.532C242.593 304.494 243.768 307.335 245.858 309.429C247.949 311.523 250.785 312.7 253.741 312.7H454.411C457.368 312.7 460.203 311.523 462.294 309.429C464.385 307.335 465.559 304.494 465.559 301.532V55.8393C465.559 52.8774 464.385 50.0368 462.294 47.9424C460.203 45.848 457.368 44.6714 454.411 44.6714ZM253.741 100.511C253.744 89.9456 256.738 79.5979 262.376 70.6693C268.015 61.7408 276.066 54.5979 285.595 50.0703C295.124 45.5426 305.74 43.816 316.209 45.0909C326.679 46.3658 336.573 50.59 344.741 57.2728C352.91 63.9556 359.019 72.8228 362.357 82.8445C365.696 92.8662 366.128 103.631 363.604 113.889C361.079 124.147 355.701 133.477 348.095 140.795C340.488 148.114 330.965 153.12 320.631 155.233V167.518C320.631 170.48 319.457 173.32 317.366 175.415C315.275 177.509 312.44 178.686 309.483 178.686C306.526 178.686 303.691 177.509 301.6 175.415C299.509 173.32 298.335 170.48 298.335 167.518V145.182C298.335 142.22 299.509 139.38 301.6 137.285C303.691 135.191 306.526 134.014 309.483 134.014C316.098 134.014 322.564 132.049 328.064 128.368C333.564 124.686 337.851 119.454 340.382 113.332C342.913 107.21 343.576 100.474 342.285 93.9745C340.995 87.4754 337.809 81.5057 333.132 76.8201C328.455 72.1346 322.495 68.9436 316.008 67.6509C309.52 66.3582 302.795 67.0216 296.684 69.5575C290.573 72.0933 285.35 76.3875 281.675 81.8971C278 87.4068 276.038 93.8843 276.038 100.511C276.038 103.473 274.864 106.313 272.773 108.408C270.682 110.502 267.847 111.679 264.89 111.679C261.933 111.679 259.097 110.502 257.007 108.408C254.916 106.313 253.741 103.473 253.741 100.511ZM320.631 201.021V212.189C320.631 215.151 319.457 217.992 317.366 220.086C315.275 222.181 312.44 223.357 309.483 223.357C306.526 223.357 303.691 222.181 301.6 220.086C299.509 217.992 298.335 215.151 298.335 212.189V201.021C298.335 198.06 299.509 195.219 301.6 193.125C303.691 191.03 306.526 189.854 309.483 189.854C312.44 189.854 315.275 191.03 317.366 193.125C319.457 195.219 320.631 198.06 320.631 201.021ZM443.263 290.364H264.89V268.029H409.818C412.774 268.029 415.61 266.852 417.701 264.758C419.791 262.663 420.966 259.823 420.966 256.861V67.0071H443.263V290.364Z" fill="white"/>
</svg>
